<?xml version="1.0" encoding="utf-8"?>
<!-- Generator: Adobe Illustrator 23.0.4, SVG Export Plug-In . SVG Version: 6.00 Build 0)  -->
<svg version="1.1" id="Layer_1" xmlns="http://www.w3.org/2000/svg" xmlns:xlink="http://www.w3.org/1999/xlink" x="0px" y="0px"
	 viewBox="0 0 407 406" style="enable-background:new 0 0 407 406;" xml:space="preserve">
<style type="text/css">
	.st0{fill:#636466;}
	.st1{fill:#FCE000;}
	.st2{fill-rule:evenodd;clip-rule:evenodd;fill:#FFFFFF;}
	.st3{fill:#FCCE0C;}
</style>
<g>
	<g>
		<g>
			<g>
				<path class="st0" d="M294.42,299.33h-53.05l0.1-4.93c0-21.93-17.84-39.77-39.77-39.77c-21.93,0-39.77,17.84-39.77,39.77
					l0.09,4.93h-53.05l-0.04-4.37c-0.01-0.19-0.01-0.37-0.01-0.56c0-51.16,41.62-92.78,92.78-92.78c51.16,0,92.78,41.62,92.78,92.78
					c0,0.19-0.01,0.37-0.01,0.56l-0.01,0.24L294.42,299.33z M249.66,291.02h36.43c-1.78-45.01-38.96-81.08-84.4-81.08
					c-45.44,0-82.61,36.07-84.4,81.08h36.43c1.74-24.94,22.59-44.7,47.97-44.7S247.92,266.08,249.66,291.02z"/>
			</g>
		</g>
		<g id="smzz0w.tif_2_">
			<g>
				<path class="st0" d="M299.26,275.14c-1.21,0.29-2.4,0.62-3.62,0.86c-30.38,5.93-60.77,11.87-91.16,17.77
					c-4.63,0.9-8.12-0.71-8.58-3.81c-0.47-3.1,2.6-6.18,6.97-6.61c31.12-3.01,62.23-5.95,93.35-8.9c0.99-0.09,1.98-0.04,2.97-0.06
					C299.22,274.65,299.24,274.9,299.26,275.14z"/>
			</g>
		</g>
		<g>
			<g>
				<g>
					<g>
						<g>
							<g>
								<g>
									<g>
										<g>
											<g>
												<g>
													<g>
														<g>
															<g>
																<g>
																	<g>
																		<path class="st0" d="M177.77,271.42v5.62c-0.04,0.12-0.07,0.25-0.09,0.37c-0.54,3.31-4.03,6.71-9.83,9.73
																			c-0.36,1.57-0.66,3.14-0.96,4.71c0.09,0.55,0.21,1.1,0.36,1.63c8.66-3.9,14.32-8.81,15.7-14.29
																			c0.22-0.39,0.35-0.85,0.35-1.34v-10.56C181.44,268.67,179.62,270.06,177.77,271.42z"/>
																		<path class="st0" d="M182.88,174.43c-3.19-11.84-26.97-23.48-68.57-23.48s-65.38,11.64-68.57,23.48
																			c-0.23,0.41-0.4,0.85-0.4,1.35v102.08c0,0.45,0.12,0.87,0.32,1.24c2.88,11.96,26.07,21.22,56.5,23.19
																			c-0.26-1.62-0.27-3.21-0.1-4.84c0.02-0.23,0.06-0.47,0.09-0.7c-29.5-1.98-49.82-10.92-51.2-19.34
																			c-0.02-0.12-0.05-0.25-0.09-0.36v-23.21c0.08,0.07,0.17,0.14,0.25,0.21c0.6,0.53,1.21,1.06,1.9,1.56
																			c9.57,7.23,27.96,12.97,54.31,13.84c0.22-1.84,0.45-3.68,0.74-5.5c-0.15-0.01-0.31-0.01-0.46-0.01
																			c-1.34-0.05-2.63-0.14-3.94-0.21c-0.81-0.05-1.64-0.08-2.44-0.14c-1.74-0.13-3.43-0.29-5.1-0.46
																			c-0.31-0.03-0.64-0.06-0.95-0.09c-1.91-0.21-3.77-0.45-5.59-0.71c-0.05-0.01-0.09-0.01-0.14-0.02
																			c-9.34-1.38-17.35-3.48-23.62-5.99c-0.03-0.01-0.07-0.02-0.1-0.04c-1.16-0.46-2.24-0.94-3.27-1.43
																			c-0.12-0.06-0.25-0.11-0.36-0.17c-0.93-0.45-1.78-0.9-2.61-1.37c-0.19-0.11-0.4-0.22-0.59-0.33
																			c-0.71-0.42-1.37-0.85-1.99-1.28c-0.24-0.17-0.48-0.33-0.71-0.5c-0.53-0.39-1-0.78-1.45-1.18
																			c-0.25-0.22-0.49-0.43-0.72-0.65c-0.37-0.36-0.69-0.72-1-1.08c-0.22-0.25-0.42-0.51-0.6-0.76
																			c-0.24-0.34-0.45-0.68-0.64-1.02c-0.15-0.27-0.28-0.55-0.39-0.82c-0.14-0.33-0.24-0.67-0.32-1
																			c-0.1-0.44-0.22-0.89-0.22-1.33c0-0.31,0.04-0.62,0.09-0.93c0.07-0.42,0.03-0.83-0.09-1.23v-20.48
																			c0.08,0.07,0.17,0.14,0.25,0.21c0.6,0.53,1.21,1.06,1.9,1.56c10.39,7.86,31.17,13.97,61.3,13.97
																			c1.81,0,3.58-0.03,5.32-0.07c1.26-1.96,2.54-3.88,3.93-5.68c-0.84,0.05-1.68,0.1-2.54,0.13
																			c-2.19,0.07-4.43,0.11-6.71,0.11c-2.28,0-4.52-0.04-6.71-0.12c-1.34-0.05-2.63-0.14-3.94-0.21
																			c-0.81-0.05-1.64-0.08-2.44-0.14c-1.74-0.13-3.43-0.29-5.1-0.46c-0.31-0.03-0.64-0.06-0.95-0.09
																			c-1.91-0.21-3.77-0.45-5.59-0.71c-0.05-0.01-0.09-0.01-0.14-0.02c-9.34-1.38-17.35-3.48-23.62-5.99
																			c-0.03-0.01-0.07-0.02-0.1-0.04c-1.16-0.46-2.24-0.94-3.27-1.43c-0.12-0.06-0.25-0.11-0.36-0.17
																			c-0.93-0.45-1.78-0.9-2.61-1.37c-0.19-0.11-0.4-0.22-0.59-0.33c-0.71-0.42-1.37-0.85-1.99-1.28
																			c-0.24-0.17-0.48-0.33-0.71-0.5c-0.53-0.39-1-0.78-1.45-1.18c-0.25-0.22-0.49-0.43-0.72-0.65
																			c-0.37-0.36-0.69-0.72-1-1.08c-0.22-0.25-0.42-0.51-0.6-0.76c-0.24-0.34-0.45-0.68-0.64-1.02
																			c-0.15-0.27-0.28-0.55-0.39-0.82c-0.14-0.33-0.24-0.67-0.32-1c-0.1-0.44-0.22-0.89-0.22-1.33
																			c0-0.31,0.04-0.62,0.09-0.93c0.07-0.42,0.03-0.83-0.09-1.23v-20.48c0.33,0.3,0.71,0.6,1.07,0.89
																			c0.2,0.17,0.38,0.33,0.59,0.5c0.83,0.65,1.72,1.29,2.69,1.92c0.2,0.13,0.43,0.26,0.64,0.39
																			c0.81,0.5,1.67,1,2.57,1.48c0.33,0.18,0.67,0.36,1.01,0.53c1.01,0.51,2.06,1.01,3.18,1.5
																			c0.18,0.08,0.35,0.16,0.53,0.24c1.29,0.55,2.67,1.07,4.1,1.58c0.39,0.14,0.81,0.27,1.21,0.41
																			c1.14,0.38,2.31,0.75,3.53,1.11c0.44,0.13,0.87,0.26,1.32,0.38c1.61,0.45,3.28,0.87,5.03,1.26
																			c0.24,0.06,0.5,0.1,0.74,0.15c1.54,0.34,3.14,0.65,4.79,0.94c0.56,0.1,1.12,0.19,1.69,0.29
																			c1.56,0.26,3.18,0.49,4.83,0.71c0.42,0.06,0.83,0.12,1.26,0.17c2.05,0.25,4.18,0.46,6.36,0.64
																			c0.54,0.04,1.1,0.08,1.64,0.12c1.75,0.13,3.53,0.23,5.36,0.31c0.67,0.03,1.33,0.06,2.01,0.09
																			c2.38,0.08,4.8,0.14,7.31,0.14c2.51,0,4.93-0.06,7.31-0.14c0.68-0.02,1.34-0.06,2.01-0.09
																			c1.83-0.08,3.61-0.19,5.36-0.31c0.55-0.04,1.1-0.07,1.64-0.12c2.18-0.18,4.31-0.39,6.36-0.64
																			c0.43-0.05,0.84-0.12,1.26-0.17c1.65-0.22,3.26-0.45,4.83-0.71c0.57-0.09,1.13-0.19,1.69-0.29
																			c1.64-0.29,3.24-0.6,4.79-0.94c0.24-0.05,0.5-0.1,0.74-0.15c1.75-0.39,3.42-0.82,5.03-1.26
																			c0.45-0.12,0.88-0.25,1.32-0.38c1.22-0.36,2.39-0.72,3.53-1.11c0.41-0.14,0.82-0.27,1.21-0.41
																			c1.43-0.51,2.81-1.03,4.1-1.58c0.18-0.08,0.35-0.16,0.53-0.24c1.11-0.49,2.17-0.98,3.18-1.5
																			c0.35-0.18,0.68-0.35,1.01-0.53c0.9-0.48,1.76-0.98,2.57-1.48c0.21-0.13,0.44-0.26,0.64-0.39
																			c0.97-0.63,1.86-1.27,2.69-1.92c0.21-0.17,0.39-0.33,0.59-0.5c0.36-0.3,0.74-0.59,1.07-0.89v9.52
																			c1.8-0.53,3.65-0.91,5.52-1.11v-20.26C183.29,175.28,183.11,174.84,182.88,174.43z M114.31,197.86
																			c-37.4,0-63.45-10.9-63.45-20.69s26.06-20.69,63.45-20.69s63.45,10.9,63.45,20.69S151.71,197.86,114.31,197.86z"
																			/>
																	</g>
																</g>
															</g>
														</g>
													</g>
												</g>
											</g>
										</g>
									</g>
								</g>
							</g>
						</g>
					</g>
				</g>
				<g>
					<g>
						<g>
							<g>
								<g>
									<g>
										<g>
											<g>
												<g>
													<g>
														<g>
															<g>
																<g>
																	<g>
																		<path class="st0" d="M114.31,238.51c1.43,0,2.83-0.02,4.23-0.05c0.12-0.42,0.31-0.85,0.58-1.28
																			c0.61-0.97,1.23-1.92,1.86-2.86c-2.19,0.07-4.41,0.12-6.68,0.12c-26.79,0-48.68-4.94-60.09-13.57
																			c-0.64-0.47-1.21-0.96-1.76-1.44l-3.63-3.33v25.12l0.08,0.57c0.04,0.12,0.05,0.23,0.03,0.34
																			c-0.07,0.42-0.11,0.83-0.11,1.25c0,0.64,0.14,1.22,0.27,1.79c0.1,0.43,0.24,0.87,0.42,1.32
																			c0.14,0.34,0.31,0.68,0.49,1.02c0.23,0.41,0.47,0.82,0.76,1.21c0.22,0.3,0.46,0.6,0.71,0.9
																			c0.35,0.42,0.72,0.82,1.13,1.22c0.25,0.24,0.52,0.48,0.81,0.73c0.49,0.43,1.01,0.86,1.58,1.28
																			c0.17,0.12,0.34,0.25,0.52,0.37l0.25,0.17c0.66,0.46,1.36,0.91,2.09,1.34l0.63,0.36
																			c0.86,0.49,1.76,0.97,2.91,1.52l0.19,0.09c1.07,0.51,2.19,1,3.49,1.52c6.64,2.65,14.96,4.76,23.95,6.09l0.27,0.04
																			c1.84,0.27,3.72,0.51,5.68,0.73l0.95,0.09c1.69,0.18,3.4,0.34,5.16,0.47c0.5,0.04,1.01,0.06,1.53,0.09l1.84,0.1
																			c1.02,0.06,2.04,0.12,3.09,0.16c0.08,0,0.15,0,0.23,0.01c0.19-1.36,0.4-2.7,0.66-4.04
																			c-0.25-0.01-0.5-0.01-0.75-0.02c-1.02-0.04-2.01-0.1-2.99-0.15l-1.88-0.11c-0.48-0.02-0.97-0.05-1.43-0.08
																			c-1.72-0.12-3.38-0.29-5.04-0.46l-0.94-0.09c-1.89-0.21-3.73-0.44-5.66-0.73c-8.81-1.3-16.81-3.33-23.26-5.9
																			c-1.12-0.45-2.16-0.91-3.14-1.38l-0.37-0.17c-0.88-0.42-1.7-0.86-2.49-1.31l-0.56-0.32
																			c-0.67-0.39-1.28-0.79-1.85-1.18l-0.67-0.47c-0.48-0.35-0.91-0.71-1.34-1.09c-0.21-0.18-0.42-0.36-0.62-0.56
																			c-0.32-0.31-0.6-0.62-0.87-0.94c-0.18-0.21-0.35-0.41-0.5-0.63c-0.19-0.27-0.36-0.54-0.51-0.81
																			c-0.11-0.2-0.21-0.41-0.29-0.6c-0.09-0.23-0.17-0.47-0.25-0.8c-0.07-0.29-0.14-0.59-0.14-0.76
																			c0-0.21,0.03-0.41,0.06-0.6c0.1-0.6,0.08-1.21-0.06-1.82v-16.03C65.22,233.57,87.48,238.51,114.31,238.51z"/>
																		<path class="st0" d="M175.74,272.88v3.9c-0.02,0.1-0.04,0.2-0.06,0.31c-0.38,2.29-2.85,4.85-7.11,7.3
																			c-0.51,1.74-0.91,3.49-1.26,5.26c7.13-3.41,11.65-7.49,12.37-11.89l0.12-0.4l0-7.44
																			C178.46,270.92,177.11,271.92,175.74,272.88z"/>
																		<path class="st0" d="M181.26,268.82v9.04c0,0.13-0.03,0.24-0.09,0.35l-0.2,0.5c-1.21,4.85-6.27,9.23-14.02,12.78
																			c-0.02,0.12-0.05,0.24-0.07,0.36c0.2,1.22,0.54,2.39,1.05,3.52c9.22-4.15,15.3-9.45,16.91-15.44
																			c0.31-0.64,0.47-1.35,0.47-2.06v-12.04C183.95,266.8,182.6,267.81,181.26,268.82z"/>
																		<path class="st0" d="M47.51,175.44l0.2-0.48c2.95-10.92,26.77-21.98,66.61-21.98c39.83,0,63.66,11.06,66.61,21.98
																			l0.2,0.48c0.12,0.21,0.14,0.31,0.14,0.34v20.53c1.34-0.23,2.7-0.37,4.06-0.41v-20.12c0-0.72-0.18-1.41-0.54-2.12
																			c-3.58-12.35-26.68-24.74-70.46-24.74c-43.79,0-66.88,12.39-70.46,24.74c-0.36,0.71-0.54,1.4-0.54,2.12v102.08
																			c0,0.67,0.15,1.34,0.44,1.95c3.37,12.91,27.35,22.62,58.95,24.55c-0.21-0.55-0.38-1.12-0.49-1.72
																			c-0.15-0.8-0.22-1.6-0.25-2.4c-29.17-1.93-51.66-10.57-54.32-21.62l-0.19-0.5c-0.05-0.09-0.07-0.18-0.07-0.27
																			V175.78C47.37,175.74,47.39,175.65,47.51,175.44z"/>
																		<path class="st0" d="M102.06,297.46c0.09-0.91,0.22-1.82,0.35-2.72c-29.44-1.98-48.36-10.98-49.46-17.67
																			c-0.02-0.1-0.04-0.19-0.06-0.28v-18.75c11.21,7.86,30.62,12.63,54.2,13.44c0.16-1.35,0.31-2.7,0.48-4.04
																			c-23.69-0.76-42.91-5.56-53.35-13.45c-0.64-0.47-1.21-0.96-1.76-1.45l-3.63-3.33v27.85l0.11,0.69
																			c1.7,10.37,24.46,19.04,53.02,21.02C101.98,298.33,102.02,297.9,102.06,297.46z"/>
																		<path class="st0" d="M114.31,199.88c36.11,0,65.48-10.19,65.48-22.72c0-12.53-29.38-22.72-65.48-22.72
																			c-36.11,0-65.48,10.19-65.48,22.72C48.83,189.69,78.21,199.88,114.31,199.88z M114.31,158.5
																			c37.5,0,61.42,11.05,61.42,18.66c0,7.61-23.93,18.66-61.42,18.66c-37.5,0-61.42-11.05-61.42-18.66
																			C52.89,169.56,76.82,158.5,114.31,158.5z"/>
																		<path class="st0" d="M176.4,186.13c-0.21,0.19-0.44,0.38-0.67,0.56l-0.88,0.74c-0.79,0.62-1.64,1.23-2.53,1.81
																			l-0.62,0.37c-0.77,0.48-1.59,0.96-2.46,1.42c-0.32,0.17-0.64,0.34-0.97,0.51c-0.97,0.5-1.99,0.97-3.06,1.44
																			l-0.52,0.23c-1.26,0.53-2.59,1.04-3.98,1.54l-1.18,0.4c-1.11,0.38-2.26,0.73-3.44,1.08l-1.29,0.37
																			c-1.58,0.43-3.22,0.85-4.93,1.24l-0.73,0.15c-1.52,0.33-3.09,0.64-4.71,0.93l-1.66,0.28
																			c-1.55,0.25-3.13,0.48-4.76,0.7l-1.24,0.17c-2.03,0.25-4.13,0.46-6.28,0.63l-1.63,0.11
																			c-1.73,0.12-3.5,0.23-5.41,0.32l-1.87,0.08c-4.71,0.15-9.78,0.15-14.48,0l-1.99-0.09
																			c-1.81-0.08-3.57-0.19-5.31-0.31l-1.62-0.11c-2.16-0.18-4.26-0.39-6.29-0.64l-1.24-0.17
																			c-1.63-0.21-3.22-0.44-4.76-0.7l-1.67-0.28c-1.62-0.29-3.19-0.59-4.72-0.93l-0.72-0.15
																			c-1.71-0.38-3.35-0.8-4.94-1.24c-0.29-0.08-0.57-0.16-0.85-0.24l-0.43-0.13c-1.19-0.35-2.34-0.71-3.45-1.08
																			l-1.18-0.4c-1.39-0.49-2.72-1-3.99-1.54l-0.51-0.23c-1.07-0.47-2.09-0.95-3.05-1.44l-0.98-0.52
																			c-0.86-0.46-1.68-0.94-2.46-1.42l-0.61-0.37c-0.87-0.56-1.73-1.17-2.53-1.81l-0.88-0.73
																			c-0.23-0.19-0.47-0.38-0.68-0.57l-3.4-3.09v25.07l0.08,0.57c0.04,0.12,0.05,0.23,0.03,0.33
																			c-0.07,0.41-0.11,0.84-0.11,1.25c0,0.65,0.14,1.23,0.27,1.79c0.1,0.44,0.24,0.87,0.42,1.32
																			c0.14,0.34,0.3,0.68,0.49,1.03c0.22,0.4,0.47,0.81,0.76,1.22c0.21,0.3,0.46,0.6,0.7,0.89
																			c0.35,0.42,0.72,0.82,1.13,1.22c0.23,0.23,0.48,0.45,0.81,0.74c0.49,0.43,1,0.85,1.58,1.28
																			c0.18,0.13,0.37,0.26,0.56,0.39l0.2,0.14c0.66,0.46,1.36,0.91,2.1,1.35l0.63,0.36c0.86,0.49,1.76,0.97,2.72,1.43
																			l0.38,0.18c1.07,0.5,2.19,1,3.48,1.52c6.64,2.65,14.96,4.76,24.22,6.13c1.84,0.27,3.72,0.51,5.66,0.72l0.96,0.09
																			c1.69,0.18,3.4,0.34,5.15,0.47c0.51,0.04,1.04,0.07,1.57,0.09l1.93,0.11c0.98,0.06,1.96,0.11,2.96,0.15
																			c2.22,0.08,4.47,0.12,6.78,0.12c2.3,0,4.56-0.05,6.78-0.11c0.31-0.01,0.61-0.03,0.92-0.05
																			c1.03-1.48,2.12-2.89,3.29-4.24l-1.16,0.06c-1.06,0.06-2.11,0.13-3.19,0.16c-4.34,0.13-8.94,0.14-13.28-0.01
																			c-0.97-0.03-1.92-0.09-2.86-0.15l-1.97-0.11c-0.49-0.03-0.99-0.05-1.47-0.09c-1.72-0.12-3.38-0.28-5.03-0.45
																			l-0.95-0.09c-1.89-0.21-3.73-0.44-5.66-0.72c-8.81-1.3-16.81-3.33-23.26-5.9c-1.12-0.45-2.16-0.91-3.14-1.38
																			l-0.36-0.17c-0.89-0.43-1.7-0.87-2.48-1.3l-0.57-0.32c-0.67-0.39-1.28-0.79-1.86-1.19l-0.66-0.46
																			c-0.48-0.36-0.91-0.72-1.39-1.13c-0.19-0.17-0.39-0.34-0.58-0.53c-0.32-0.31-0.6-0.62-0.87-0.94
																			c-0.18-0.21-0.35-0.42-0.5-0.63c-0.2-0.28-0.36-0.55-0.51-0.81c-0.11-0.21-0.22-0.42-0.3-0.61
																			c-0.09-0.23-0.17-0.46-0.25-0.8c-0.07-0.29-0.14-0.59-0.14-0.77c0-0.2,0.03-0.41,0.06-0.6
																			c0.1-0.6,0.08-1.21-0.06-1.82v-16.03c0.4,0.28,0.81,0.56,1.23,0.83l0.66,0.4c0.85,0.53,1.74,1.04,2.69,1.55
																			l1.05,0.55c1.04,0.53,2.13,1.05,3.28,1.55l0.55,0.25c1.27,0.54,2.65,1.07,4.21,1.62l1.25,0.42
																			c1.16,0.39,2.36,0.77,3.62,1.14l0.42,0.12c0.31,0.09,0.62,0.18,0.93,0.27c1.65,0.45,3.34,0.89,5.11,1.28
																			l0.76,0.16c1.57,0.34,3.19,0.66,4.87,0.96l1.72,0.29c1.59,0.26,3.22,0.5,4.89,0.71l1.28,0.17
																			c2.08,0.25,4.23,0.47,6.44,0.65l1.66,0.11c1.76,0.13,3.57,0.24,5.45,0.32l1.99,0.08c4.8,0.16,9.95,0.16,14.77,0
																			l2.02-0.09c1.85-0.08,3.65-0.19,5.42-0.32l1.66-0.11c2.21-0.18,4.36-0.4,6.43-0.65l1.28-0.17
																			c1.67-0.22,3.3-0.46,4.9-0.72l1.71-0.29c1.67-0.3,3.3-0.61,4.85-0.95l0.76-0.16c1.78-0.4,3.48-0.83,5.13-1.29
																			l1.35-0.39c1.24-0.36,2.44-0.74,3.6-1.13l1.25-0.42c1.58-0.56,2.95-1.09,4.2-1.62l0.56-0.25
																			c1.15-0.5,2.24-1.02,3.29-1.55c0.36-0.18,0.7-0.37,1.05-0.55c0.94-0.51,1.84-1.02,2.69-1.55l0.66-0.4
																			c0.41-0.27,0.82-0.54,1.22-0.82v6c1.31-0.48,2.65-0.89,4.02-1.2l0.04-13.59L176.4,186.13z"/>
																	</g>
																</g>
															</g>
														</g>
													</g>
												</g>
											</g>
										</g>
									</g>
								</g>
							</g>
						</g>
					</g>
				</g>
			</g>
		</g>
		<g>
			<path class="st3" d="M204.29,217.31c-38.79-1.44-73.02,23.68-77.74,66.69c-0.03,0.23,21.32,0.21,21.32,0.21
				c2.77-24.74,23.44-45.51,50.95-47.01c19.93-1.08,45.18,10.18,55.92,36.33l21.89-1.01C263.26,234.21,230.71,218.29,204.29,217.31z
				"/>
		</g>
	</g>
	<g>
		<g>
			<g>
				<g>
					<g>
						<g>
							<g>
								<g>
									<g>
										<g>
											<g>
												<g>
													<g>
														<g>
															<g>
																<g>
																	<path class="st0" d="M367.58,171.27c-3.18-11.79-26.87-23.39-68.31-23.39c-41.44,0-65.13,11.6-68.31,23.39
																		c-0.23,0.4-0.4,0.85-0.4,1.35v25.5c1.18,0.22,2.32,0.67,3.34,1.41c0.71,0.52,1.43,1.02,2.16,1.51v-16.63
																		c0.33,0.3,0.71,0.59,1.06,0.89c0.2,0.16,0.38,0.33,0.59,0.49c0.82,0.65,1.72,1.29,2.68,1.91
																		c0.2,0.13,0.43,0.26,0.63,0.38c0.81,0.5,1.66,0.99,2.56,1.48c0.33,0.18,0.67,0.35,1.01,0.53
																		c1,0.51,2.06,1.01,3.16,1.49c0.18,0.08,0.35,0.16,0.53,0.24c1.29,0.55,2.66,1.07,4.08,1.57
																		c0.39,0.14,0.81,0.27,1.21,0.41c1.13,0.38,2.3,0.75,3.52,1.1c0.44,0.13,0.87,0.26,1.31,0.38
																		c1.61,0.45,3.27,0.87,5.01,1.26c0.24,0.05,0.5,0.1,0.74,0.15c1.54,0.34,3.13,0.65,4.77,0.94
																		c0.56,0.1,1.12,0.19,1.68,0.29c1.56,0.26,3.16,0.49,4.81,0.7c0.42,0.05,0.83,0.12,1.26,0.17
																		c2.04,0.25,4.16,0.46,6.34,0.64c0.54,0.04,1.09,0.08,1.64,0.12c1.74,0.13,3.52,0.23,5.34,0.31
																		c0.66,0.03,1.32,0.06,2,0.09c2.37,0.08,4.78,0.14,7.28,0.14c2.5,0,4.91-0.06,7.28-0.14c0.67-0.02,1.33-0.05,2-0.09
																		c1.82-0.08,3.6-0.19,5.34-0.31c0.54-0.04,1.1-0.07,1.64-0.12c2.17-0.18,4.29-0.39,6.34-0.64
																		c0.43-0.05,0.83-0.12,1.26-0.17c1.65-0.21,3.25-0.45,4.81-0.7c0.57-0.09,1.13-0.19,1.68-0.29
																		c1.64-0.29,3.23-0.6,4.77-0.94c0.24-0.05,0.5-0.1,0.74-0.15c1.74-0.39,3.4-0.82,5.01-1.26
																		c0.45-0.12,0.88-0.25,1.31-0.38c1.21-0.35,2.38-0.72,3.52-1.1c0.4-0.14,0.82-0.27,1.21-0.41
																		c1.42-0.51,2.8-1.03,4.08-1.57c0.18-0.08,0.35-0.16,0.53-0.24c1.11-0.48,2.16-0.98,3.16-1.49
																		c0.34-0.18,0.68-0.35,1.01-0.53c0.9-0.48,1.75-0.97,2.56-1.48c0.21-0.13,0.43-0.26,0.63-0.38
																		c0.96-0.62,1.86-1.26,2.68-1.91c0.21-0.16,0.39-0.33,0.59-0.49c0.36-0.3,0.73-0.59,1.06-0.89v20.41
																		c-0.12,0.39-0.15,0.81-0.09,1.22c0.05,0.31,0.09,0.62,0.09,0.93c0,0.44-0.11,0.89-0.22,1.33
																		c-0.08,0.33-0.18,0.66-0.32,1c-0.11,0.27-0.24,0.54-0.39,0.82c-0.18,0.34-0.39,0.68-0.63,1.01
																		c-0.18,0.26-0.39,0.51-0.6,0.76c-0.31,0.36-0.63,0.72-1,1.08c-0.22,0.22-0.47,0.43-0.71,0.65
																		c-0.45,0.39-0.92,0.78-1.45,1.17c-0.23,0.17-0.47,0.33-0.71,0.49c-0.62,0.43-1.27,0.85-1.98,1.27
																		c-0.19,0.11-0.39,0.22-0.58,0.33c-0.82,0.46-1.67,0.92-2.6,1.37c-0.12,0.06-0.24,0.11-0.36,0.17
																		c-1.03,0.49-2.11,0.96-3.26,1.43c-0.03,0.01-0.07,0.02-0.1,0.04c-6.24,2.49-14.23,4.59-23.53,5.96
																		c-0.05,0.01-0.09,0.01-0.14,0.02c-1.81,0.27-3.66,0.5-5.57,0.71c-0.31,0.03-0.64,0.05-0.95,0.09
																		c-1.66,0.17-3.35,0.33-5.08,0.46c-0.79,0.06-1.62,0.09-2.43,0.13c-1.3,0.08-2.59,0.16-3.93,0.21
																		c-2.18,0.07-4.41,0.11-6.68,0.11c-2.27,0-4.5-0.04-6.68-0.12c-1.34-0.05-2.62-0.13-3.93-0.21
																		c-0.81-0.05-1.64-0.08-2.43-0.13c-1.73-0.13-3.41-0.29-5.08-0.46c-0.31-0.03-0.64-0.05-0.95-0.09
																		c-1.9-0.21-3.76-0.45-5.57-0.71c-0.01,0-0.02,0-0.03,0c2.22,1.91,4.36,3.94,6.37,6.19
																		c0.06,0.07,0.11,0.14,0.17,0.21c5.61,0.53,11.64,0.83,18.13,0.83c29.88,0,50.54-6.04,60.93-13.82
																		c0.83-0.6,1.58-1.23,2.28-1.86l0,0v20.41c-0.12,0.39-0.15,0.81-0.09,1.22c0.05,0.31,0.09,0.62,0.09,0.93
																		c0,0.44-0.11,0.89-0.22,1.33c-0.08,0.33-0.18,0.66-0.32,1c-0.11,0.27-0.24,0.54-0.39,0.82
																		c-0.18,0.34-0.39,0.68-0.63,1.01c-0.18,0.26-0.39,0.51-0.6,0.76c-0.31,0.36-0.63,0.72-1,1.08
																		c-0.22,0.22-0.47,0.43-0.71,0.65c-0.45,0.39-0.92,0.78-1.45,1.17c-0.23,0.17-0.47,0.33-0.71,0.49
																		c-0.62,0.43-1.27,0.85-1.98,1.27c-0.19,0.11-0.39,0.22-0.58,0.33c-0.82,0.46-1.67,0.92-2.6,1.37
																		c-0.12,0.06-0.24,0.11-0.36,0.17c-1.03,0.49-2.11,0.96-3.26,1.43c-0.03,0.01-0.07,0.02-0.1,0.04
																		c-6.24,2.49-14.23,4.59-23.53,5.96c-0.05,0.01-0.09,0.01-0.14,0.02c-1.81,0.27-3.66,0.5-5.57,0.71
																		c-0.31,0.03-0.64,0.05-0.95,0.09c-1.66,0.17-3.35,0.33-5.08,0.46c-0.79,0.06-1.62,0.09-2.43,0.13
																		c-1.3,0.08-2.59,0.16-3.93,0.21c-2.18,0.07-4.41,0.11-6.68,0.11c-1.03,0-2.02-0.04-3.04-0.05
																		c0.66,1.84,1.31,3.69,1.94,5.54c0.37,0,0.72,0.01,1.1,0.01c29.88,0,50.54-6.04,60.93-13.82
																		c0.83-0.6,1.58-1.23,2.28-1.86l0,0v23.12c-0.04,0.12-0.07,0.24-0.09,0.37c-1.49,9.07-24.99,18.74-58.26,19.61
																		c0.03,0.83,0.03,1.66,0.02,2.49c-0.01,1.1-0.17,2.1-0.43,3.02c33.93-0.79,60.7-10.5,63.91-23.35
																		c0.22-0.39,0.34-0.85,0.34-1.33v-101.7C367.98,172.12,367.81,171.67,367.58,171.27z M299.26,194.61
																		c-37.26,0-63.22-10.86-63.22-20.61c0-9.75,25.96-20.61,63.22-20.61s63.22,10.86,63.22,20.61
																		C362.48,183.74,336.52,194.61,299.26,194.61z"/>
																</g>
															</g>
														</g>
													</g>
												</g>
											</g>
										</g>
									</g>
								</g>
							</g>
						</g>
					</g>
				</g>
			</g>
			<g>
				<g>
					<g>
						<g>
							<g>
								<g>
									<g>
										<g>
											<g>
												<g>
													<g>
														<g>
															<g>
																<g>
																	<path class="st0" d="M234.02,199.63c1.33,0.96,2.68,1.88,4.04,2.79v-13.82c0.4,0.28,0.81,0.56,1.22,0.82l0.66,0.4
																		c0.84,0.53,1.74,1.04,2.68,1.55l1.05,0.55c1.04,0.53,2.13,1.04,3.27,1.54l0.55,0.25c1.27,0.54,2.64,1.07,4.19,1.62
																		l1.24,0.42c1.16,0.39,2.36,0.77,3.6,1.13l0.41,0.12c0.31,0.09,0.62,0.18,0.92,0.26c1.64,0.45,3.33,0.89,5.09,1.28
																		l0.76,0.16c1.56,0.34,3.18,0.66,4.85,0.95l1.71,0.29c1.58,0.26,3.21,0.49,4.87,0.71l1.27,0.17
																		c2.07,0.25,4.21,0.46,6.42,0.65l1.66,0.11c1.76,0.13,3.55,0.23,5.43,0.32l1.99,0.08c4.78,0.16,9.91,0.16,14.71,0
																		l2.01-0.08c1.84-0.08,3.63-0.19,5.4-0.32l1.65-0.11c2.2-0.18,4.34-0.4,6.41-0.65l1.28-0.17
																		c1.67-0.22,3.29-0.45,4.88-0.71l1.71-0.29c1.66-0.3,3.28-0.61,4.83-0.95l0.76-0.16c1.78-0.39,3.47-0.83,5.11-1.28
																		l1.34-0.39c1.24-0.36,2.44-0.74,3.59-1.13l1.24-0.42c1.57-0.56,2.94-1.09,4.18-1.61l0.56-0.25
																		c1.14-0.5,2.23-1.01,3.28-1.54c0.36-0.18,0.7-0.37,1.04-0.55c0.94-0.5,1.83-1.02,2.68-1.55l0.66-0.4
																		c0.41-0.27,0.82-0.54,1.22-0.82v15.97c-0.14,0.6-0.16,1.21-0.06,1.82c0.03,0.19,0.06,0.39,0.06,0.59
																		c0,0.18-0.07,0.49-0.17,0.88c-0.05,0.23-0.13,0.47-0.22,0.69c-0.08,0.2-0.19,0.41-0.3,0.61
																		c-0.15,0.26-0.31,0.53-0.51,0.82c-0.15,0.21-0.32,0.42-0.49,0.62c-0.26,0.31-0.55,0.62-0.87,0.94
																		c-0.2,0.19-0.42,0.39-0.63,0.57c-0.41,0.36-0.84,0.71-1.33,1.07c-0.15,0.11-0.3,0.22-0.46,0.32l-0.19,0.13
																		c-0.58,0.4-1.19,0.8-1.88,1.2l-0.53,0.3c-0.78,0.44-1.6,0.88-2.48,1.31l-0.35,0.16c-1,0.47-2.04,0.93-3.25,1.42
																		c-6.32,2.53-14.3,4.55-23.22,5.86c-1.78,0.26-3.61,0.5-5.49,0.7l-0.94,0.09c-1.64,0.17-3.3,0.33-5.01,0.45
																		c-0.44,0.03-0.9,0.05-1.35,0.08l-1.74,0.1c-1.05,0.06-2.1,0.13-3.17,0.16c-4.32,0.13-8.9,0.14-13.23-0.01
																		c-0.97-0.03-1.91-0.09-2.85-0.15l-1.96-0.11c-0.49-0.03-0.98-0.05-1.47-0.08c-1.71-0.12-3.37-0.28-5.01-0.45
																		l-0.94-0.09c-1.88-0.21-3.71-0.44-5.63-0.72c-1.11-0.16-2.22-0.34-3.3-0.53c1.99,1.54,3.92,3.19,5.77,4.95
																		c0.9,0.11,1.8,0.22,2.73,0.32l0.96,0.09c1.68,0.18,3.39,0.34,5.14,0.46c0.51,0.04,1.04,0.07,1.56,0.09l1.92,0.11
																		c0.97,0.06,1.95,0.11,2.95,0.15c2.21,0.08,4.46,0.12,6.75,0.12c2.29,0,4.54-0.05,6.75-0.11
																		c1.11-0.04,2.2-0.1,3.28-0.17l1.7-0.09c0.49-0.02,0.97-0.05,1.45-0.08c1.75-0.13,3.46-0.29,5.14-0.47l0.95-0.09
																		c1.93-0.21,3.81-0.45,5.78-0.74c9.08-1.34,17.37-3.45,24.09-6.13c1.19-0.48,2.3-0.97,3.41-1.49l0.34-0.16
																		c0.96-0.46,1.86-0.95,2.72-1.43l0.61-0.35c0.76-0.44,1.45-0.9,2.11-1.35l0.18-0.12c0.2-0.14,0.4-0.27,0.58-0.41
																		c0.57-0.42,1.08-0.84,1.58-1.28c0.27-0.24,0.54-0.48,0.79-0.72c0.42-0.4,0.79-0.81,1.14-1.23
																		c0.25-0.3,0.49-0.59,0.69-0.88c0.3-0.41,0.55-0.82,0.77-1.24c0.18-0.34,0.35-0.68,0.49-1.03
																		c0.17-0.43,0.31-0.86,0.43-1.37c0.11-0.48,0.25-1.06,0.25-1.72c0-0.42-0.04-0.85-0.11-1.25
																		c-0.02-0.1,0-0.21,0.03-0.33l0.08-25.55l-3.38,3.08c-0.21,0.19-0.44,0.38-0.67,0.56l-0.88,0.73
																		c-0.78,0.62-1.63,1.23-2.52,1.8l-0.62,0.37c-0.77,0.48-1.59,0.95-2.45,1.41c-0.32,0.17-0.64,0.34-0.97,0.51
																		c-0.97,0.49-1.99,0.97-3.05,1.44l-0.52,0.23c-1.25,0.53-2.58,1.04-3.97,1.53l-1.18,0.4
																		c-1.11,0.38-2.25,0.73-3.43,1.08l-1.29,0.37c-1.58,0.43-3.21,0.85-4.91,1.23l-0.73,0.15
																		c-1.51,0.33-3.08,0.63-4.69,0.92l-1.66,0.28c-1.54,0.25-3.12,0.48-4.75,0.69l-1.24,0.17
																		c-2.02,0.24-4.11,0.46-6.25,0.63l-1.62,0.11c-1.72,0.12-3.48,0.23-5.39,0.31l-1.87,0.08
																		c-4.69,0.15-9.75,0.15-14.42,0l-1.98-0.08c-1.8-0.08-3.56-0.19-5.29-0.31l-1.61-0.11
																		c-2.15-0.18-4.24-0.39-6.26-0.64l-1.23-0.17c-1.62-0.21-3.21-0.44-4.74-0.69l-1.66-0.28
																		c-1.61-0.29-3.18-0.59-4.7-0.93l-0.72-0.15c-1.71-0.38-3.34-0.8-4.92-1.24c-0.29-0.08-0.56-0.16-0.84-0.24
																		l-0.43-0.13c-1.18-0.35-2.33-0.7-3.44-1.08l-1.18-0.4c-1.38-0.49-2.71-1-3.98-1.53l-0.51-0.23
																		c-1.07-0.47-2.09-0.95-3.04-1.43l-0.98-0.52c-0.86-0.46-1.68-0.93-2.45-1.41l-0.61-0.37
																		c-0.87-0.56-1.72-1.17-2.52-1.8l-0.88-0.73c-0.23-0.19-0.46-0.38-0.67-0.57l-3.38-3.08V199.63z"/>
																	<path class="st0" d="M369.46,170.51c-3.57-12.31-26.58-24.65-70.2-24.65c-43.62,0-66.63,12.34-70.2,24.65
																		c-0.36,0.7-0.54,1.4-0.54,2.11v25.35c1.39-0.04,2.77,0.21,4.04,0.81v-26.15c0-0.04,0.02-0.14,0.14-0.34l0.2-0.48
																		c2.93-10.88,26.67-21.89,66.36-21.89c39.69,0,63.43,11.01,66.36,21.89l0.2,0.48c0.12,0.21,0.14,0.3,0.14,0.34
																		v101.7c0,0.13-0.03,0.24-0.09,0.35l-0.2,0.5c-2.97,11.89-29.06,20.98-61.58,21.81c-0.14,1.55-0.56,2.9-1.18,4.08
																		c35.21-0.66,62.88-10.81,66.62-24.67c0.31-0.64,0.46-1.34,0.46-2.06v-101.7C370,171.9,369.82,171.21,369.46,170.51
																		z"/>
																	<path class="st0" d="M364.5,244.32l-3.52,4.69c-0.68,0.6-1.33,1.13-2,1.61c-11.39,8.53-33.16,13.42-59.72,13.42
																		c-0.61,0-1.2-0.02-1.8-0.02c0.47,1.35,0.94,2.7,1.39,4.06c0.14,0,0.27,0,0.41,0c26.73,0,48.93-4.93,61.2-13.54
																		v18.68c-0.02,0.1-0.04,0.2-0.06,0.31c-1.18,7.18-23,17.05-56.37,17.92c0.09,1.34,0.13,2.68,0.12,4.04
																		c31.85-0.87,58.4-10.09,60.23-21.29l0.12-0.4L364.5,244.32z"/>
																	<path class="st0" d="M299.26,196.63c35.97,0,65.24-10.15,65.24-22.63s-29.27-22.64-65.24-22.64
																		c-35.97,0-65.24,10.16-65.24,22.64S263.29,196.63,299.26,196.63z M299.26,155.4c37.36,0,61.2,11.01,61.2,18.59
																		s-23.84,18.59-61.2,18.59c-37.36,0-61.2-11.01-61.2-18.59S261.91,155.4,299.26,155.4z"/>
																	<path class="st0" d="M364.42,238.37l0.08-0.28l0-25.24l-3.38,3.05c-0.73,0.66-1.42,1.22-2.14,1.75
																		c-11.39,8.53-33.16,13.42-59.72,13.42c-7.13,0-13.89-0.36-20.22-1.04c0.65,0.66,1.29,1.33,1.92,2.02
																		c0.68,0.77,1.22,1.56,1.65,2.37c5.31,0.45,10.86,0.69,16.65,0.69c26.73,0,48.93-4.93,61.2-13.54v15.98
																		c-0.14,0.61-0.16,1.21-0.06,1.82c0.03,0.2,0.06,0.39,0.06,0.59c0,0.18-0.07,0.48-0.14,0.78l-0.02,0.1
																		c-0.05,0.23-0.13,0.47-0.22,0.69c-0.08,0.2-0.18,0.41-0.29,0.61c-0.15,0.26-0.31,0.53-0.52,0.82
																		c-0.15,0.21-0.32,0.41-0.49,0.62c-0.26,0.31-0.55,0.63-0.87,0.94c-0.19,0.19-0.41,0.37-0.63,0.57
																		c-0.41,0.36-0.84,0.71-1.33,1.07c-0.15,0.11-0.3,0.22-0.46,0.32l-0.19,0.13c-0.58,0.4-1.19,0.8-1.88,1.21
																		l-0.53,0.3c-0.78,0.44-1.6,0.88-2.48,1.31l-0.35,0.16c-0.99,0.47-2.04,0.93-3.24,1.42
																		c-6.33,2.53-14.31,4.55-22.95,5.83l-0.26,0.03c-1.78,0.26-3.61,0.5-5.49,0.7l-0.94,0.09
																		c-1.64,0.17-3.3,0.33-5.01,0.45c-0.44,0.03-0.9,0.05-1.35,0.08l-1.74,0.1c-1.05,0.06-2.1,0.13-3.18,0.17
																		c-3.38,0.1-6.92,0.13-10.37,0.06c0.48,1.35,0.96,2.7,1.44,4.05c0.78,0.01,1.53,0.04,2.32,0.04
																		c2.3,0,4.54-0.04,6.75-0.11c1.11-0.04,2.2-0.1,3.28-0.17l1.7-0.09c0.49-0.02,0.97-0.05,1.45-0.08
																		c1.75-0.13,3.46-0.29,5.13-0.46l0.97-0.09c1.93-0.21,3.81-0.45,5.78-0.74c9.07-1.34,17.37-3.45,24.09-6.13
																		c1.19-0.48,2.3-0.97,3.32-1.45l0.43-0.2c0.96-0.47,1.86-0.94,2.71-1.43l0.61-0.35c0.76-0.44,1.45-0.9,2.11-1.36
																		l0.18-0.12c0.2-0.14,0.4-0.27,0.58-0.41c0.57-0.42,1.08-0.84,1.6-1.29c0.27-0.24,0.53-0.47,0.77-0.7
																		c0.42-0.4,0.79-0.81,1.13-1.22c0.25-0.3,0.5-0.6,0.7-0.88c0.3-0.41,0.55-0.82,0.77-1.23
																		c0.19-0.34,0.35-0.68,0.49-1.03c0.17-0.43,0.31-0.86,0.41-1.29l-1.97-0.46l1.99,0.37c0.11-0.47,0.25-1.06,0.25-1.7
																		c0-0.42-0.04-0.85-0.11-1.26C364.37,238.61,364.39,238.5,364.42,238.37z"/>
																</g>
															</g>
														</g>
													</g>
												</g>
											</g>
										</g>
									</g>
								</g>
							</g>
						</g>
					</g>
				</g>
			</g>
		</g>
	</g>
	<g>
		<g>
			<g>
				<g>
					<g>
						<g>
							<g>
								<g>
									<g>
										<g>
											<g>
												<g>
													<g>
														<g>
															<g>
																<g>
																	<path class="st0" d="M220.1,182.17c-0.41,0.05-0.8,0.11-1.22,0.16c-0.31,0.03-0.64,0.05-0.95,0.09
																		c-1.66,0.17-3.34,0.33-5.08,0.46c-0.79,0.06-1.62,0.09-2.43,0.13c-1.3,0.08-2.59,0.16-3.93,0.21
																		c-2.18,0.07-4.41,0.11-6.68,0.11s-4.5-0.04-6.68-0.12c-1.22-0.04-2.4-0.12-3.58-0.19c0.02,1.86,0.19,3.72,0.4,5.57
																		c3.17,0.15,6.45,0.24,9.87,0.24c7.29,0,14.02-0.36,20.2-1.02C220.03,185.93,220.06,184.06,220.1,182.17z"/>
																	<path class="st0" d="M248.1,148.65c1.24-1.64,3.05-2.97,5.51-3.73c1.77-0.54,3.54-1.09,5.32-1.61
																		c0.88-0.58,1.7-1.16,2.46-1.76c0.21-0.16,0.39-0.33,0.59-0.49c0.36-0.3,0.73-0.59,1.06-0.89v1.98
																		c1.82-0.5,3.65-0.97,5.5-1.39v-12.39c0-0.5-0.17-0.94-0.4-1.35c-3.18-11.79-26.87-23.39-68.31-23.39
																		c-41.44,0-65.13,11.6-68.31,23.39c-0.23,0.4-0.4,0.85-0.4,1.35v17.09c1.84,0.18,3.67,0.41,5.5,0.7v-5.99
																		c0.33,0.3,0.71,0.59,1.06,0.89c0.2,0.16,0.38,0.33,0.59,0.49c0.82,0.65,1.72,1.29,2.68,1.91
																		c0.2,0.13,0.43,0.26,0.63,0.38c0.81,0.5,1.66,0.99,2.56,1.48c0.33,0.18,0.67,0.35,1.01,0.53
																		c1,0.51,2.06,1.01,3.16,1.49c0.18,0.08,0.35,0.16,0.53,0.24c0.5,0.21,1.03,0.42,1.55,0.63
																		c4.69,0.8,9.39,1.48,13.86,3.2c1.36,0.52,2.66,1.11,3.94,1.75c0.43,0.08,0.85,0.16,1.28,0.24
																		c0.56,0.1,1.12,0.19,1.68,0.29c1.56,0.26,3.16,0.49,4.81,0.7c0.42,0.05,0.83,0.12,1.26,0.17
																		c2.04,0.25,4.16,0.46,6.34,0.64c0.54,0.04,1.09,0.08,1.64,0.12c1.74,0.13,3.52,0.23,5.34,0.31
																		c0.66,0.03,1.32,0.06,2,0.09c2.37,0.08,4.78,0.14,7.28,0.14c2.5,0,4.91-0.06,7.28-0.14c0.67-0.02,1.33-0.05,2-0.09
																		c1.82-0.08,3.6-0.19,5.34-0.31c0.54-0.04,1.1-0.07,1.64-0.12c2.17-0.18,4.29-0.39,6.34-0.64
																		c0.43-0.05,0.83-0.12,1.26-0.17c1.65-0.21,3.25-0.45,4.81-0.7c0.57-0.09,1.13-0.19,1.68-0.29
																		c1.64-0.29,3.23-0.6,4.77-0.94c0.24-0.05,0.5-0.1,0.74-0.15c1.74-0.39,3.4-0.82,5.01-1.26
																		c0.45-0.12,0.88-0.25,1.31-0.38c1.21-0.35,2.38-0.72,3.52-1.1c0.4-0.14,0.82-0.27,1.21-0.41
																		C247.19,148.99,247.64,148.82,248.1,148.65z M199.82,150.35c-37.26,0-63.22-10.86-63.22-20.61
																		s25.96-20.61,63.22-20.61s63.22,10.86,63.22,20.61S237.08,150.35,199.82,150.35z"/>
																</g>
															</g>
														</g>
													</g>
												</g>
											</g>
										</g>
									</g>
								</g>
							</g>
						</g>
					</g>
				</g>
			</g>
			<g>
				<g>
					<g>
						<g>
							<g>
								<g>
									<g>
										<g>
											<g>
												<g>
													<g>
														<g>
															<g>
																<g>
																	<path class="st0" d="M246.66,151.31c1.02-2.83,3.25-5.26,6.94-6.39c3.8-1.17,7.6-2.32,11.44-3.31l0.02-6.02
																		l-3.38,3.08c-0.21,0.19-0.44,0.38-0.67,0.56l-0.88,0.73c-0.78,0.62-1.63,1.23-2.52,1.8l-0.62,0.37
																		c-0.77,0.48-1.59,0.95-2.45,1.41c-0.32,0.17-0.64,0.34-0.97,0.51c-0.97,0.49-1.99,0.97-3.05,1.44l-0.52,0.23
																		c-1.25,0.53-2.58,1.04-3.97,1.53l-1.18,0.4c-1.11,0.38-2.25,0.73-3.43,1.08l-1.29,0.37
																		c-1.58,0.43-3.21,0.85-4.91,1.23l-0.73,0.15c-1.51,0.33-3.08,0.63-4.69,0.92l-1.66,0.28
																		c-1.54,0.25-3.12,0.48-4.75,0.69l-1.24,0.17c-2.02,0.24-4.11,0.46-6.25,0.63l-1.62,0.11
																		c-1.72,0.12-3.48,0.23-5.39,0.31l-1.87,0.08c-4.69,0.15-9.75,0.15-14.42,0l-1.98-0.08
																		c-1.8-0.08-3.56-0.19-5.29-0.31l-1.61-0.11c-2.15-0.18-4.24-0.39-6.26-0.64l-1.23-0.17
																		c-1.62-0.21-3.21-0.44-4.74-0.69l-1.66-0.28c-1.61-0.29-3.18-0.59-4.7-0.93l-0.72-0.15
																		c-1.71-0.38-3.34-0.8-4.92-1.24c-0.29-0.08-0.56-0.16-0.84-0.24l-0.43-0.13c-1.18-0.35-2.33-0.7-3.44-1.08
																		l-1.18-0.4c-1.38-0.49-2.71-1-3.98-1.53l-0.51-0.23c-1.07-0.47-2.09-0.95-3.04-1.43l-0.98-0.52
																		c-0.86-0.46-1.68-0.93-2.45-1.41l-0.61-0.37c-0.87-0.56-1.72-1.17-2.52-1.8l-0.88-0.73
																		c-0.23-0.19-0.46-0.38-0.67-0.57l-3.38-3.08v10.25c1.35,0.18,2.7,0.4,4.04,0.64v-2.13
																		c0.4,0.28,0.81,0.56,1.22,0.82l0.66,0.4c0.84,0.53,1.74,1.04,2.68,1.55l0.96,0.51c0.15,0.04,0.27,0.11,0.41,0.15
																		c1.31-0.15,2.67-0.12,4.02,0.13c5.29,0.95,10.62,1.57,15.68,3.51c3.26,1.26,6.25,2.91,9.21,4.65
																		c0.75,0.11,1.48,0.23,2.25,0.33l1.27,0.17c2.07,0.25,4.21,0.46,6.42,0.65l1.66,0.11c1.76,0.13,3.55,0.23,5.43,0.32
																		l1.99,0.08c4.78,0.16,9.91,0.16,14.71,0l2.01-0.08c1.84-0.08,3.63-0.19,5.4-0.32l1.65-0.11
																		c2.2-0.18,4.34-0.4,6.41-0.65l1.28-0.17c1.67-0.22,3.29-0.45,4.88-0.71l1.71-0.29c1.66-0.3,3.28-0.61,4.83-0.95
																		l0.76-0.16c1.78-0.39,3.47-0.83,5.11-1.28l1.34-0.39c1.24-0.36,2.44-0.74,3.59-1.13L246.66,151.31z"/>
																	<path class="st0" d="M220.14,180.13c-0.5,0.06-0.97,0.13-1.48,0.19l-0.94,0.09c-1.64,0.17-3.3,0.33-5.01,0.45
																		c-0.44,0.03-0.9,0.05-1.35,0.08l-1.74,0.1c-1.05,0.06-2.1,0.13-3.17,0.16c-4.32,0.13-8.9,0.14-13.23-0.01
																		c-0.97-0.03-1.91-0.09-2.85-0.15l-1.02-0.06c0.13,0.67,0.21,1.34,0.21,2.01c0.01,0.69,0.04,1.37,0.08,2.06
																		l0.49,0.03c0.97,0.06,1.95,0.11,2.95,0.15c2.21,0.08,4.46,0.12,6.75,0.12c2.29,0,4.54-0.05,6.75-0.11
																		c1.11-0.04,2.2-0.1,3.28-0.17l1.7-0.09c0.49-0.02,0.97-0.05,1.45-0.08c1.75-0.13,3.45-0.29,5.14-0.47l0.95-0.09
																		c0.32-0.03,0.64-0.08,0.96-0.11C220.09,182.86,220.12,181.5,220.14,180.13z"/>
																	<path class="st0" d="M266.18,127.54l0.2,0.48c0.12,0.21,0.14,0.3,0.14,0.34v12.87c1.34-0.33,2.69-0.64,4.04-0.92
																		v-11.94c0-0.71-0.18-1.4-0.54-2.11c-3.57-12.31-26.58-24.65-70.2-24.65c-43.62,0-66.63,12.34-70.2,24.65
																		c-0.36,0.7-0.54,1.4-0.54,2.11v16.9c1.35,0.09,2.7,0.24,4.04,0.4v-17.3c0-0.04,0.02-0.14,0.14-0.34l0.2-0.48
																		c2.93-10.88,26.67-21.89,66.36-21.89C239.51,105.64,263.25,116.66,266.18,127.54z"/>
																	<path class="st0" d="M199.82,152.37c35.97,0,65.24-10.15,65.24-22.63c0-12.48-29.27-22.64-65.24-22.64
																		c-35.97,0-65.24,10.16-65.24,22.64C134.58,142.21,163.85,152.37,199.82,152.37z M199.82,111.14
																		c37.36,0,61.2,11.01,61.2,18.59c0,7.58-23.84,18.59-61.2,18.59c-37.36,0-61.2-11.01-61.2-18.59
																		C138.63,122.15,162.47,111.14,199.82,111.14z"/>
																	<path class="st0" d="M220.04,185.76c-6.33,0.68-13.09,1.04-20.22,1.04c-3.45,0-6.81-0.09-10.08-0.25
																		c0.1,1.07,0.22,2.13,0.35,3.19c0.04,0.29,0.04,0.58,0.03,0.87c3.16,0.15,6.39,0.22,9.7,0.22
																		c7.09,0,13.84-0.36,20.19-1.03C220.01,188.47,220.02,187.12,220.04,185.76z"/>
																</g>
															</g>
														</g>
													</g>
												</g>
											</g>
										</g>
									</g>
								</g>
							</g>
						</g>
					</g>
				</g>
			</g>
		</g>
	</g>
</g>
</svg>
